HIERARCHY
ROOT Hips
{
  OFFSET 0 0 0
  CHANNELS 6 Xposition Yposition Zposition Zrotation Yrotation Xrotation
  JOINT LeftThigh
  {
    OFFSET 8.409438 0 -5.917753
    CHANNELS 3 Zrotation Yrotation Xrotation
    JOINT LeftLeg
    {
      OFFSET 0 0 -42.358652
      CHANNELS 3 Zrotation Yrotation Xrotation
      JOINT LeftFoot
      {
        OFFSET 0 0 -39.357303
        CHANNELS 3 Zrotation Yrotation Xrotation
      }
    }
  }
  JOINT RightThigh
  {
    OFFSET -8.409438 0 -5.917753
    CHANNELS 3 Zrotation Yrotation Xrotation
    JOINT RightLeg
    {
      OFFSET 0 0 -42.358652
      CHANNELS 3 Zrotation Yrotation Xrotation
      JOINT RightFoot
      {
        OFFSET 0 0 -39.357303
        CHANNELS 3 Zrotation Yrotation Xrotation
      }
    }
  }
  JOINT SpineLow
  {
    OFFSET 0 0 4.719101
    CHANNELS 3 Zrotation Yrotation Xrotation
    JOINT SpineMid
    {
      OFFSET 0 0 12.899191
      CHANNELS 3 Zrotation Yrotation Xrotation
      JOINT Chest
      {
        OFFSET 0 0 12.899191
        CHANNELS 3 Zrotation Yrotation Xrotation
        JOINT LeftShoulder
        {
          OFFSET 7.550562 1.41573 9.438202
          CHANNELS 3 Zrotation Yrotation Xrotation
          JOINT LeftArm
          {
            OFFSET 9.155056 0 4.247191
            CHANNELS 3 Zrotation Yrotation Xrotation
            JOINT LeftForearm
            {
              OFFSET 0 0 25.771955
              CHANNELS 3 Zrotation Yrotation Xrotation
              JOINT LeftHand
              {
                OFFSET 0 0 25.197169
                CHANNELS 3 Zrotation Yrotation Xrotation
              }
            }
          }
        }
        JOINT RightShoulder
        {
          OFFSET -7.550562 1.41573 9.438202
          CHANNELS 3 Zrotation Yrotation Xrotation
          JOINT RightArm
          {
            OFFSET -9.155056 0 4.247191
            CHANNELS 3 Zrotation Yrotation Xrotation
            JOINT RightForearm
            {
              OFFSET 0 0 -25.771955
              CHANNELS 3 Zrotation Yrotation Xrotation
              JOINT RightHand
              {
                OFFSET 0 0 -25.197169
                CHANNELS 3 Zrotation Yrotation Xrotation
              }
            }
          }
        }
        JOINT Neck
        {
          OFFSET 0 0 15.101124
          CHANNELS 3 Zrotation Yrotation Xrotation
          JOINT Head
          {
            OFFSET 0 0 11.325843
            CHANNELS 3 Zrotation Yrotation Xrotation
            End Site
            {
              OFFSET 0 0 14.157303
            }
          }
        }
      }
    }
  }
}
MOTION
Frames: 16
Frame Time: 0.0
0.0  89.887642  0.0  0.004803  -21.123449  -93.680689  7.234272  -14.0209  0.224461  0.539953  1.87741  19.517027  0.271393  0.058262  0.098088  -15.2905  10.171815  -12.485368  -11.533259  6.612984  10.838044  6.937466  0.422865  -1.497051  0.298403  0.097012  0.401081  0.817243  0.260211  1.097498  0.817243  0.260211  1.097497  -9.877697  19.059178  2.862066  158.671536  42.886243  -161.982183  -7.09381  -5.97408  40.055576  96.901098  -2.165286  1.827705  -6.505735  -7.018318  21.69459  89.047735  48.430931  40.743163  9.377424  13.456686  -30.301227  98.127224  8.088162  -11.920142  -3.82755  0.163922  0.761997  -2.87087  0.118175  0.572551  
0.0  89.887642  0.0  -0.190784  -20.940163  -93.486348  6.896989  -14.216202  -0.007776  0.636169  1.817963  19.468667  0.378779  0.066071  0.178296  -15.063049  10.073379  -12.123927  -12.375258  6.530734  10.145336  7.087017  0.31908  -1.457989  0.295159  0.056174  0.360661  0.807607  0.149137  0.986502  0.807607  0.149137  0.986502  -9.832279  19.25928  2.954392  158.361189  42.923293  -162.00088  -6.870292  -5.930995  39.623637  96.915058  -2.252448  1.779336  -6.817915  -7.016436  21.747123  89.626894  48.352564  40.416662  10.467991  14.275349  -27.656708  98.450602  8.828112  -11.646789  -3.977041  0.229434  0.721508  -2.983052  0.167389  0.542651  
0.0  89.887642  0.0  -0.310826  -20.741774  -93.280583  6.883062  -14.339603  -0.211725  0.680089  1.795989  19.49053  0.374513  0.040845  0.185753  -15.241664  9.950312  -11.940674  -12.715142  6.417892  9.605599  7.091576  0.273959  -1.435611  0.285417  0.029856  0.330063  0.780551  0.077711  0.902534  0.780551  0.077711  0.902534  -9.710791  19.39248  2.958994  158.046576  42.883968  -162.03976  -6.603027  -5.941177  39.191338  96.957989  -2.316539  1.813394  -6.986769  -7.08111  21.662416  89.5848  48.255286  39.910927  11.522487  14.872924  -25.326519  98.803125  9.364708  -11.481176  -4.001086  0.297758  0.631997  -3.00112  0.219192  0.475971  
0.0  89.887642  0.0  -0.38706  -20.476495  -93.074865  6.609383  -14.47684  -0.612263  0.006285  1.765551  19.148666  1.024362  0.284572  0.63216  -15.770782  9.856856  -11.917609  -13.091925  6.274851  9.12305  7.206619  0.2418  -1.367946  0.267226  0.018322  0.314112  0.730659  0.04661  0.858785  0.730659  0.04661  0.858785  -9.72256  19.436697  2.868945  157.901653  42.822456  -162.013515  -6.327361  -6.010736  38.708954  96.955725  -2.381747  1.891563  -7.133882  -7.246593  21.397563  89.27856  48.14234  39.429325  12.405587  14.95358  -23.40157  98.877894  9.742236  -11.393652  -4.179799  0.305907  0.433323  -3.135061  0.22648  0.327102  
0.0  89.887642  0.0  -0.422042  -20.245271  -92.945772  6.610231  -14.582134  -0.876121  -0.181125  1.829278  19.243908  1.20465  0.319895  0.703411  -16.295359  9.790509  -11.894774  -12.890333  6.128326  8.834653  7.150721  0.222579  -1.342264  0.23276  0.004355  0.303403  0.63627  0.008984  0.829354  0.63627  0.008984  0.829354  -9.560842  19.569701  2.827339  157.818826  42.772023  -161.94302  -6.09555  -6.053814  38.268154  96.92471  -2.412738  1.916338  -7.128618  -7.312712  21.18042  88.548289  48.105553  38.775172  12.927392  14.515688  -21.945869  98.705698  10.046837  -11.407696  -4.135165  0.335283  0.309096  -3.101535  0.249384  0.234102  
0.0  89.887642  0.0  -0.448146  -19.80818  -92.823551  6.139347  -14.674661  -1.272789  -0.444067  1.886081  19.327052  1.54862  0.435302  0.908352  -17.388091  9.645357  -12.017814  -12.664348  6.047855  8.552311  7.386065  0.20896  -1.249555  0.180998  -0.003364  0.296972  0.494689  -0.011417  0.811714  0.494689  -0.011417  0.811714  -9.56959  19.615277  2.780887  157.832896  42.719861  -161.821448  -5.947618  -6.102823  37.88502  96.784083  -2.417749  1.885887  -7.425386  -7.401633  20.952174  88.07815  47.964913  38.316412  13.025297  13.732967  -20.973705  98.292254  10.237409  -11.494182  -4.216968  0.325801  0.166895  -3.162807  0.243213  0.127426  
0.0  89.887642  0.0  -0.495111  -19.591686  -92.886207  6.074651  -14.7904  -1.37152  -0.667722  1.95121  19.465344  1.697673  0.479611  0.994787  -17.820824  9.604471  -11.852652  -12.365362  5.967526  8.368967  7.334544  0.188452  -1.181033  0.161939  -0.010119  0.308257  0.442507  -0.029723  0.842518  0.442507  -0.029723  0.842518  -9.505707  19.690244  2.820592  157.740517  42.710506  -161.759205  -5.937615  -6.114248  37.512019  96.739376  -2.469745  1.796363  -7.609273  -7.352725  20.900429  87.628284  47.80379  37.675682  12.677248  12.819477  -20.219272  98.058993  10.411928  -11.430202  -4.250831  0.282698  0.110611  -3.188168  0.211266  0.084929  
0.0  89.887642  0.0  -0.507627  -19.365254  -92.980508  5.870267  -14.892291  -1.514041  -0.75568  2.085938  19.718345  1.890904  0.540816  1.127073  -18.422203  9.557408  -11.801829  -12.203839  5.91902  8.267497  7.512326  0.203693  -1.07844  0.130026  -0.010356  0.309501  0.355274  -0.029969  0.845931  0.355274  -0.029969  0.845931  -9.342742  19.706108  2.982136  157.62437  42.736888  -161.743068  -5.831151  -6.056672  37.37802  96.633061  -2.389942  1.579323  -7.764256  -7.301646  20.960162  87.520276  47.574155  37.233275  12.307737  12.210286  -19.677435  98.136038  10.579324  -10.952134  -4.307948  0.221948  0.102391  -3.230994  0.165749  0.078362  
0.0  89.887642  0.0  -0.570068  -19.242247  -93.088801  5.91087  -15.019327  -1.557544  -0.97398  2.18468  19.871479  2.003939  0.56558  1.206776  -18.585698  9.528691  -11.655505  -12.05938  5.891984  8.279526  7.43878  0.227485  -1.034807  0.128686  -0.01114  0.328458  0.351592  -0.032197  0.897746  0.351592  -0.032197  0.897746  -9.333972  19.738405  3.060563  157.505357  42.781439  -161.759876  -5.804996  -6.051282  37.178157  96.708153  -2.440023  1.401844  -7.887012  -7.283427  20.999329  87.467293  47.399581  36.831675  12.253912  12.184187  -19.255279  98.381895  10.747494  -10.234262  -4.378946  0.131502  0.085071  -3.284227  0.098023  0.064749  
0.0  89.887642  0.0  -0.560854  -19.302618  -93.286446  6.035269  -15.111173  -1.553494  -0.98708  2.312806  20.15249  1.948014  0.508553  1.163381  -18.738651  9.522219  -11.562169  -11.925959  5.91802  8.335329  7.597608  0.274139  -0.979237  0.156672  -0.003206  0.358016  0.428189  -0.011084  0.978575  0.428189  -0.011083  0.978575  -9.38088  19.761586  3.169973  157.288431  42.899618  -161.784991  -5.630437  -6.045781  37.144887  96.594114  -2.409764  1.181029  -7.958978  -7.287755  21.031979  87.783441  47.246398  36.798664  12.488181  12.629087  -18.906835  98.620992  10.993768  -9.552655  -4.484329  0.049238  0.075324  -3.363253  0.036378  0.056858  
0.0  89.887642  0.0  -0.612392  -19.227811  -93.361152  6.088301  -15.226934  -1.604438  -1.121589  2.411698  20.290788  1.99316  0.528149  1.211209  -18.681032  9.489466  -11.475728  -11.919554  5.954381  8.453782  7.559015  0.316898  -0.960597  0.16724  -0.00461  0.374865  0.457051  -0.015193  1.024618  0.457051  -0.015193  1.024618  -9.521125  19.825885  3.226979  157.130196  43.007699  -161.860237  -5.624014  -6.054877  37.013174  96.668315  -2.423727  0.972211  -8.113064  -7.321483  21.017258  88.945144  47.082454  37.511787  12.855941  13.240016  -18.632561  98.505918  11.231276  -9.104991  -4.572371  9.64E-4  0.071687  -3.429279  1.87E-4  0.053776  
0.0  89.887642  0.0  -0.614962  -19.305956  -93.490789  6.388199  -15.33114  -1.528562  -1.384298  2.492093  20.319942  2.035919  0.557328  1.228503  -18.591755  9.470904  -11.441346  -11.734194  6.034591  8.633575  7.536235  0.345988  -0.940558  0.219103  9.53E-4  0.407359  0.598892  -0.001086  1.113475  0.598892  -0.001086  1.113474  -9.615791  19.867175  3.270189  156.562058  43.180081  -162.044125  -5.698477  -6.078027  36.876964  96.644774  -2.551803  0.891628  -8.388656  -7.34045  20.905415  90.621036  47.04528  38.666191  13.096643  13.503633  -18.356195  98.327556  11.454623  -8.892867  -4.727307  -0.038  0.04695  -3.545477  -0.028865  0.034922  
0.0  89.887642  0.0  -0.662445  -19.263402  -93.528259  6.47153  -15.431124  -1.553823  -1.591488  2.560935  20.335584  2.159109  0.616767  1.294299  -18.373419  9.436876  -11.409418  -11.786222  6.09614  8.819129  7.465996  0.378762  -0.913203  0.234823  0.00162  0.419045  0.64187  3.6E-4  1.145421  0.64187  3.6E-4  1.145421  -9.770526  19.862218  3.306841  156.217032  43.265339  -162.256756  -5.737719  -6.115545  36.768593  96.682927  -2.533881  0.796481  -8.445757  -7.315756  20.845572  92.167648  47.130361  39.696425  13.152478  13.29948  -18.00746  98.340123  11.406778  -8.820035  -4.804072  -0.045394  0.066873  -3.603049  -0.034574  0.049802  
0.0  89.887642  0.0  -0.67691  -19.419893  -93.685526  6.835806  -15.555729  -1.392878  -1.670293  2.656481  20.389388  2.225657  0.660153  1.31501  -17.841898  9.464908  -11.248947  -11.744449  6.160302  9.008395  7.319137  0.394074  -0.891901  0.285539  -0.002419  0.44911  0.780417  -0.011915  1.22755  0.780417  -0.011915  1.22755  -9.672636  19.942474  3.412738  155.444086  43.421556  -162.542643  -5.714839  -6.185771  36.641961  96.619027  -2.629496  0.838255  -8.466234  -7.253164  20.757624  92.831629  47.050919  40.032196  13.392818  13.216621  -17.361369  98.402425  11.08362  -8.722813  -4.898786  -0.005407  0.103125  -3.674089  -0.004883  0.077306  
0.0  89.887642  0.0  -0.716643  -19.389225  -93.742706  6.969354  -15.679253  -1.373292  -1.793437  2.728142  20.387742  2.324091  0.714908  1.357751  -17.536303  9.451269  -11.137861  -11.760863  6.200305  9.125519  7.253882  0.404202  -0.846906  0.307155  -0.009572  0.458451  0.839361  -0.031984  1.252986  0.839361  -0.031984  1.252986  -9.800105  19.966353  3.461176  154.958745  43.502039  -162.817691  -5.710628  -6.232382  36.488624  96.602801  -2.611934  0.835473  -8.423281  -7.190934  20.76242  92.678498  47.040435  39.838336  13.609185  13.15702  -16.708562  98.664885  10.605298  -8.497235  -4.997533  0.039046  0.1675  -3.748161  0.027917  0.125954  
0.0  89.887642  0.0  -0.743999  -19.452236  -93.880799  7.284867  -15.816322  -1.233589  -1.811663  2.835105  20.421506  2.310638  0.716355  1.31819  -17.03328  9.483366  -10.868193  -11.414324  6.190283  9.277191  6.999565  0.403803  -0.848862  0.341354  -0.021997  0.472364  0.932586  -0.066789  1.29082  0.932586  -0.066789  1.29082  -9.707173  20.060598  3.586911  154.479535  43.590782  -163.03072  -5.570929  -6.273194  36.38848  96.531218  -2.583302  0.83957  -8.432786  -7.133185  20.872559  92.938564  46.959486  39.921133  13.58037  12.941885  -16.064312  98.670504  10.143206  -8.1472  -5.062648  0.11861  0.285855  -3.797041  0.086597  0.215391  
